<?xml version="1.0" encoding="utf-8" standalone="no"?>
<!DOCTYPE svg PUBLIC "-//W3C//DTD SVG 1.1//EN" "http://www.w3.org/Graphics/SVG/1.1/DTD/svg11.dtd">
<svg version="1.1" width="612pt" height="792pt" viewBox="0 0 612 792" overflow="visible" xmlns="http://www.w3.org/2000/svg">
  <path d="M422.0208,356.2424 C426.5555,354.4858 432.5475,354.3943 437.7225,356.4054 C442.8975,358.4164 447.2554,362.53 449.414,366.8876 L441.5592,370.5222 C439.0292,365.1271 430.8694,361.9562 425.3603,364.2271 z" stroke="#000000" stroke-width="0.24" fill="none" />
  <path d="M450.337,420.7163 L449.1499,420.7111 L449.7339,418.9939" stroke="#000000" stroke-width="0.24" fill="none" />
  <path d="M447.5366,422.5489 L448.582,422.5555 L448.8534,421.5698 L450.6361,421.5705 L450.9449,422.5509 L451.9968,422.5415 C451.536,421.4991 450.6236,418.3293 450.2914,417.7709 L449.2072,417.758 z" stroke="#000000" stroke-width="0.24" fill="none" />
  <path d="M397.5328,399.2009 L401.6453,399.2009 C395.4662,390.0055 395.0919,375.8009 400.7784,366.2929 C405.8262,356.431 418.0692,349.2184 429.1418,349.5835 C440.2145,349.2184 452.4575,356.431 457.5053,366.2929 C463.1917,375.8009 462.8175,390.0055 456.6383,399.2009 L460.7508,399.2009 C466.7811,388.87 466.4912,373.7174 460.0702,363.6247 C454.2714,353.1621 441.0985,345.6682 429.1418,346.0302 C417.1852,345.6682 404.0122,353.1621 398.2135,363.6247 C391.7924,373.7174 391.5025,388.87 397.5328,399.2009 z" stroke="#000000" stroke-width="0.24" fill="none" />
  <path d="M437.2681,420.7 L436.081,420.6947 L436.665,418.9775" stroke="#000000" stroke-width="0.24" fill="none" />
  <path d="M412.8488,373.4225 C412.8488,373.8808 412.9809,375.1713 412.6331,375.3553 C412.2381,375.5644 411.9041,375.2437 411.7552,375.0463 C411.3839,374.5541 411.2423,373.7602 411.3112,372.9315 C411.3643,372.2935 411.7007,371.4049 412.3054,371.3442 C412.8017,371.2944 412.8556,371.5989 412.8614,372.0369 z" stroke="#000000" stroke-width="0.24" fill="none" />
  <path d="M411.7805,365.7252 C413.5524,366.4265 411.5971,367.9785 410.9392,369.1102 C409.2618,371.9958 409.4499,375.2151 411.2394,378.0238 C411.7245,378.7852 412.3587,379.2577 412.4595,379.6686 C412.6681,380.5187 411.9125,381.2332 411.112,380.9205 C410.3562,380.6253 409.0767,378.608 408.6748,377.7293 C406.9892,374.0443 407.6376,369.8011 410.1069,366.7024 C410.4721,366.244 410.9664,365.4029 411.7805,365.7252 z" stroke="#000000" stroke-width="0.24" fill="none" />
  <path d="M408.4785,363.1218 C408.9597,363.2581 409.2528,363.5634 409.2428,364.1549 C409.2238,365.2687 405.7388,367.5171 405.7838,373.6224 C405.8061,376.6646 407.1013,379.4696 408.8128,381.5368 C409.9031,382.8536 408.728,383.6918 407.8949,383.4471 C407.0406,383.1962 405.3472,380.2359 404.8859,379.1567 C401.3408,370.8629 406.9341,362.6845 408.4785,363.1218 z" stroke="#000000" stroke-width="0.24" fill="none" />
  <path d="M420.5745,372.6337 C420.5742,374.4791 420.905,375.973 419.0993,375.9878 C417.9394,375.9973 418.3659,375.9161 417.046,376.8928 C416.698,377.1503 414.7432,378.6909 414.4422,378.7246 C413.9446,378.7804 413.7714,378.4333 413.7714,377.9578 L413.7714,368.7885 C413.771,368.2893 413.9287,367.9597 414.4498,367.9969 C414.8975,368.0288 417.3576,370.1875 417.9224,370.6487 C418.4505,371.0799 418.3704,370.9457 419.1987,370.9537 C420.2431,370.9639 420.5747,371.5779 420.5745,372.6337 z" stroke="#000000" stroke-width="0.24" fill="none" />
  <path d="M445.9621,407.831 L448.8231,407.8095 C448.822,405.752 446.0727,405.8275 445.9621,407.831 z" stroke="#000000" stroke-width="0.24" fill="none" />
  <path d="M423.4611,365.0215 L421.5766,366.1847 L415.4208,360.0357 C416.8498,358.8471 418.4415,357.8316 420.1216,357.0367 z" stroke="#000000" stroke-width="0.24" fill="none" />
  <path d="M413.0238,422.5299 L416.0803,422.5303 L416.0769,421.7451 L414.0036,421.7457 L414.0088,417.7863 L413.0239,417.754 z" stroke="#000000" stroke-width="0.24" fill="none" />
  <path d="M425.0928,418.5824 C424.2786,418.9366 424.1471,419.6621 424.289,420.634 C424.3994,421.3902 424.9772,422.1004 425.859,421.7647 C427.2306,421.2426 426.825,417.8288 425.0928,418.5824 z" stroke="#000000" stroke-width="0.24" fill="none" />
  <path d="M439.0453,418.5724 L440.5067,418.5502 L440.4854,422.4746 L441.4446,422.5399 L441.4336,418.5606 L442.8477,418.5541 L442.8708,417.8009 L439.0216,417.7568 z" stroke="#000000" stroke-width="0.24" fill="none" />
  <path d="M443.6939,418.5764 L445.12,418.5493 L445.1091,422.4729 L446.0515,422.5279 L446.0547,418.549 L447.4991,418.5603 L447.5326,417.7773 L443.6881,417.7614 z" stroke="#000000" stroke-width="0.24" fill="none" />
  <path d="M428.7001,422.5324 L429.6864,422.5313 L429.6884,420.5655 L431.4612,420.5747 L431.4638,419.768 L429.6819,419.7689 L429.6995,418.5208 L431.855,418.5372 L431.8532,417.703 L428.7057,417.6991 z" stroke="#000000" stroke-width="0.24" fill="none" />
  <path d="M454.7294,422.6285 C455.7506,422.6301 456.5464,422.2233 456.6836,421.3465 L455.9611,421.0122 C455.2552,422.3336 453.6662,421.9535 453.6289,420.2651 C453.6102,419.4169 453.7848,418.854 454.3487,418.5958 C455.1791,418.2157 455.5511,418.7949 455.9126,419.1715 L456.6025,418.7881 C456.3578,417.9598 455.6773,417.6966 454.7294,417.6985 C451.9055,417.704 451.8871,422.6239 454.7294,422.6285 z" stroke="#000000" stroke-width="0.24" fill="none" />
  <path d="M417.0659,422.5308 L420.3164,422.5301 L420.3123,421.7437 L418.0488,421.7405 L418.05,420.5097 L419.9032,420.5317 L419.9118,419.7077 L418.0475,419.7111 L418.0608,418.5099 L420.2235,418.5308 L420.2215,417.6989 L417.0682,417.6988 z" stroke="#000000" stroke-width="0.24" fill="none" />
  <path d="M458.8072,419.7214 L458.7718,417.7974 L457.7834,417.7917 L457.7809,422.5303 L458.7718,422.5314 C458.7711,420.5082 458.6841,421.3379 459.1459,420.5578 L460.6229,422.5322 L461.81,422.5222 L459.8417,419.8707 C460.1947,419.182 461.181,418.3888 461.6327,417.6953 C460.2132,417.7099 460.61,417.6016 459.8975,418.4344 z" stroke="#000000" stroke-width="0.24" fill="none" />
  <path d="M411.9004,419.9662 L410.0661,419.9659 L410.0728,420.7422 L410.9569,420.7368 L410.9406,421.4276 C409.7087,422.3022 408.639,421.6132 408.7365,419.9626 C408.8366,418.2668 410.2453,418.0709 411.0865,419.143 L411.8356,418.7759 C410.7562,416.7124 407.1674,417.5235 407.799,420.8505 C408.2206,423.0718 410.8319,422.9657 411.6646,421.9589 C412.0515,421.4911 411.8654,420.6066 411.9004,419.9662 z" stroke="#000000" stroke-width="0.24" fill="none" />
  <path d="M434.4677,422.5324 L435.5131,422.5391 L435.7845,421.5534 L437.5672,421.5541 L437.876,422.5345 L438.9279,422.5251 C438.467,421.4826 437.5547,418.3129 437.2225,417.7545 L436.1383,417.7416 z" stroke="#000000" stroke-width="0.24" fill="none" />
  <path d="M464.5896,408.6278 C464.5798,405.4228 461.4221,405.6953 461.4285,408.6281 C461.4311,409.8359 461.8326,410.7954 463.0109,410.8382 C464.3318,410.8863 464.5866,409.8497 464.5896,408.6278 z" stroke="#000000" stroke-width="0.24" fill="none" />
  <path d="M439.4473,406.3605 C438.221,406.3585 437.817,407.3565 437.8224,408.6281 C437.8276,409.8816 438.1777,410.8864 439.4333,410.8481 C440.636,410.8114 441.0346,409.8631 441.0429,408.6284 C441.0512,407.3968 440.65,406.3625 439.4473,406.3605 z" stroke="#000000" stroke-width="0.24" fill="none" />
  <path d="M402.8681,422.5299 L403.7531,422.5287 L403.7557,419.4368 L405.7505,422.5146 L406.7128,422.5302 L406.7141,417.6974 L405.8266,417.6971 L405.826,420.8778 L403.7738,417.6984 L402.8688,417.6988 z" stroke="#000000" stroke-width="0.24" fill="none" />
  <path d="M424.8891,417.7847 C424.1958,417.9702 423.8522,418.1865 423.5599,418.7675 C422.7491,420.3795 423.5652,423.2356 426.0732,422.5639 C428.6044,421.8859 428.047,416.9399 424.8891,417.7847 z" stroke="#000000" stroke-width="0.24" fill="none" />
  <path d="M399.8452,412.4305 L401.8585,412.4715 L401.8531,401.6082 C401.4119,401.4344 400.3799,401.4589 399.8656,401.5824 z" stroke="#000000" stroke-width="0.24" fill="none" />
  <path d="M450.337,420.7163 L449.7339,418.9939" stroke="#000000" stroke-width="0.24" fill="none" />
  <path d="M448.0757,378.8782 C448.8631,378.8428 449.6507,377.95 449.5877,377.1644 C449.6507,376.3787 448.8631,375.4859 448.0757,375.4505 L443.0844,374.8234 L442.4237,372.3905 L450.2785,368.756 C451.8358,372.524 452.3143,376.8904 451.6102,380.9063 L444.4253,379.3369 z" stroke="#000000" stroke-width="0.24" fill="none" />
  <path d="M403.0757,413.7224 L402.948,415.4346 C406.6917,416.0015 406.7116,414.0384 407.7178,411.5068 L408.8935,408.2433 L409.4965,406.5811 L410.0506,404.8968 L407.8638,404.8813 L406.3754,410.2594 L404.683,404.8771 L402.5346,404.8842 L404.3656,409.8909 C404.978,411.5063 405.8112,412.7604 404.6075,413.5225 C404.1584,413.8068 403.691,413.7732 403.0757,413.7224 z" stroke="#000000" stroke-width="0.24" fill="none" />
  <path d="M392.2195,412.4689 L394.3457,412.463 L394.3469,408.2334 L398.1819,408.2287 L398.2381,406.4616 L394.3414,406.4585 L394.3537,403.9948 L398.9527,403.9944 C398.9556,403.4031 399.0496,402.6131 398.8837,402.0653 L392.2567,402.0594 z" stroke="#000000" stroke-width="0.24" fill="none" />
  <path d="M450.5817,411.1869 L449.5211,410.1896 C448.8361,410.5429 448.4415,411.1986 447.3013,410.9294 C446.4581,410.7303 445.9903,410.1513 445.9517,409.1689 L449.9027,409.1802 C450.8922,409.1925 450.8506,409.2333 450.7777,408.1354 C450.5076,404.0637 446.6337,404.0302 445.0049,405.6087 C443.5782,406.9913 443.633,410.2214 445.0309,411.6221 C446.5441,413.1384 449.5154,412.8201 450.5817,411.1869 z" stroke="#000000" stroke-width="0.24" fill="none" />
  <path d="M458.3731,411.1876 L457.3042,410.1905 C456.6709,410.3763 456.2811,411.1951 455.0779,410.9406 C454.163,410.7471 453.8181,410.1125 453.6844,409.1755 L457.6936,409.1826 C458.7095,409.199 458.5064,409.1354 458.4793,408.0324 L458.1045,406.33 C457.1613,404.4055 454.3079,404.0476 452.7321,405.6455 C451.3624,407.0345 451.3737,410.1342 452.6843,411.5578 C454.1827,413.1853 457.3138,412.7935 458.3731,411.1876 z" stroke="#000000" stroke-width="0.24" fill="none" />
  <path d="M429.2193,409.7992 L427.6596,410.8406 C428.7507,412.4966 430.5794,412.944 432.4612,412.4858 C435.0739,411.8497 436.4344,408.1629 432.9854,406.71 C432.2444,406.3978 431.0994,406.1238 430.5222,405.7183 C429.2372,404.8154 430.6357,402.953 432.4856,403.8567 C432.9523,404.0847 433.0957,404.3983 433.433,404.6838 L434.9357,403.5995 C434.3622,402.2286 432.0542,401.44 430.1563,402.0001 C429.2992,402.2529 428.6339,402.8142 428.2925,403.4844 C427.8799,404.2942 427.8905,405.5428 428.3093,406.3544 C429.2176,408.1148 431.6891,407.808 432.6038,408.8676 C433.3056,409.6805 432.5881,410.6923 431.6538,410.7929 C430.5161,410.9154 429.6052,410.4276 429.2193,409.7992 z" stroke="#000000" stroke-width="0.24" fill="none" />
  <path d="M437.8156,405.7241 L437.7487,404.9077 L435.9111,404.8851 L435.9272,415.4909 L436.8838,415.5045 L437.8839,415.4406 L437.9045,411.7036 C438.4544,412.0074 438.429,412.46 439.5056,412.6054 C440.2806,412.7101 441.0404,412.5001 441.5282,412.1849 C444.2298,410.4398 443.489,403.7191 439.2933,404.7266 C438.4515,404.9287 438.3213,405.2503 437.8156,405.7241 z" stroke="#000000" stroke-width="0.24" fill="none" />
  <path d="M464.541,401.599 L464.5535,405.5749 C464.0716,405.2737 463.9891,404.8281 463.0059,404.6861 C462.2257,404.5734 461.433,404.7415 460.9241,405.0653 C458.3311,406.715 458.8924,413.3246 463.015,412.5805 C463.907,412.4195 464.1978,411.9487 464.6875,411.5385 L464.7131,412.4438 L466.527,412.4644 L466.5145,402.1206 C466.5147,401.457 466.5939,401.5173 465.8806,401.5203 z" stroke="#000000" stroke-width="0.24" fill="none" />
  <path d="M414.0565,401.9108 C412.5811,402.1522 411.7335,402.856 411.1292,403.9752 C409.6174,406.7751 410.1691,413.3877 415.7735,412.5637 C418.513,412.1609 419.6247,409.5603 419.324,406.2641 C419.0685,403.4633 417.2512,401.3882 414.0565,401.9108 z" stroke="#000000" stroke-width="0.24" fill="none" />
  <path d="M447.8987,376.8592 L429.9767,374.6073 C429.2744,374.507 428.4745,374.7536 427.9504,375.2318 C427.4106,375.6921 427.0663,376.455 427.0782,377.1644 C427.0663,377.8737 427.4106,378.6367 427.9504,379.097 C428.4745,379.5752 429.2744,379.8217 429.9767,379.7215 L447.8987,377.4695 C448.0389,377.4633 448.1792,377.3043 448.1679,377.1644 C448.1792,377.0245 448.0389,376.8655 447.8987,376.8592 z" stroke="#000000" stroke-width="0.24" fill="none" />
  <path d="M437.2681,420.7 L436.665,418.9775" stroke="#000000" stroke-width="0.24" fill="none" />
  <path d="M400.2229,420.7076 L399.0358,420.7024 L399.6198,418.9852" stroke="#000000" stroke-width="0.24" fill="none" />
  <path d="M397.4225,422.5401 L398.4679,422.5468 L398.7393,421.5611 L400.522,421.5618 L400.8308,422.5422 L401.8826,422.5328 C401.4218,421.4903 400.5094,418.3206 400.1773,417.7622 L399.0931,417.7493 z" stroke="#000000" stroke-width="0.24" fill="none" />
  <path d="M400.2229,420.7076 L399.6198,418.9852" stroke="#000000" stroke-width="0.24" fill="none" />
  <path d="M451.1709,382.9175 C449.7509,388.5465 445.6109,393.8617 440.5009,396.6166 L430.0686,390.7897 C435.4836,390.9108 441.4386,386.3343 442.7153,381.0706 z" stroke="#000000" stroke-width="0.24" fill="none" />
  <path d="M440.9297,379.7761 C440.2475,382.9903 437.8293,386.0707 434.8689,387.4965 C431.9633,389.0306 428.0488,389.1458 425.058,387.785 C424.5865,387.5269 423.799,387.8159 423.6063,388.3176 C423.3247,388.7756 423.5736,389.5766 424.0651,389.7944 L440.4713,398.9581 C446.5712,396.0607 451.6099,389.8614 453.1996,383.2981 C455.0144,376.7935 453.6409,368.9236 449.7301,363.4182 C446.0113,357.7814 439.1705,353.6553 432.4498,352.9953 C425.7558,352.1043 418.154,354.5606 413.247,359.2001 C413.0375,359.3859 412.9027,359.6825 412.9005,359.9625 C412.8902,360.2423 413.0116,360.5447 413.2126,360.7397 L420.746,368.2648 C421.0673,368.6467 421.8339,368.6786 422.1858,368.3248 C425.0192,365.7849 429.73,364.877 433.3044,366.1818 C436.949,367.2755 440.1797,370.8222 440.9297,374.5526 L448.0757,375.4505 C448.8631,375.4859 449.6507,376.3787 449.5877,377.1644 C449.6507,377.95 448.8631,378.8428 448.0757,378.8782 z" stroke="#000000" stroke-width="0.24" fill="none" />
  <path d="M414.4231,403.7735 C412.6671,404.2105 412.3982,406.2672 412.5582,407.8274 C412.727,409.4727 413.502,411.1848 415.4482,410.7554 C416.9642,410.421 417.3722,408.528 417.2583,406.6558 C417.1592,405.028 416.2987,403.3066 414.4231,403.7735 z" stroke="#000000" stroke-width="0.24" fill="none" />
  <path d="M453.7221,407.8252 L456.5855,407.8113 C456.6721,405.924 453.8054,405.6534 453.7221,407.8252 z" stroke="#000000" stroke-width="0.24" fill="none" />
  <path d="M422.1852,405.6761 L422.1108,404.8857 L420.4503,404.8927 L420.455,412.4516 L422.3929,412.4753 L422.3904,408.825 C422.3886,407.5566 422.4325,406.4598 423.6882,406.4002 C425.0057,406.3377 425.0077,407.4963 425.0072,408.7261 L425.0024,412.473 L426.9227,412.4727 C426.9434,411.0847 427.1047,406.9917 426.6885,406.0074 C426.3656,405.2437 425.6842,404.7569 424.6612,404.6673 C423.1778,404.5374 422.861,405.1466 422.1852,405.6761 z" stroke="#000000" stroke-width="0.24" fill="none" />
</svg>